<svg width="135" height="37" viewBox="0 0 135 37" fill="none" xmlns="http://www.w3.org/2000/svg">
<path d="M37.1656 17.0895C37.059 16.7443 36.912 16.4354 36.7245 16.1626C36.5413 15.8857 36.3197 15.6491 36.0597 15.4531C35.8041 15.2571 35.51 15.1101 35.1776 15.0121C34.8453 14.9098 34.483 14.8587 34.091 14.8587C33.3879 14.8587 32.7615 15.0355 32.2117 15.3892C31.662 15.7429 31.2295 16.2628 30.9142 16.9489C30.6031 17.6307 30.4475 18.4616 30.4475 19.4418C30.4475 20.4304 30.6031 21.2678 30.9142 21.9538C31.2252 22.6399 31.6578 23.1619 32.2117 23.5199C32.7657 23.8736 33.4092 24.0504 34.1421 24.0504C34.8069 24.0504 35.3822 23.9226 35.868 23.6669C36.358 23.4112 36.7352 23.049 36.9994 22.5803C37.2636 22.1072 37.3957 21.5533 37.3957 20.9183L37.9326 21.0014H34.3786V19.1477H39.6904V20.7202C39.6904 21.8409 39.4518 22.8104 38.9745 23.6286C38.4972 24.4467 37.841 25.0774 37.0058 25.5206C36.1705 25.9595 35.2117 26.179 34.1294 26.179C32.9234 26.179 31.8644 25.9084 30.9525 25.3672C30.0448 24.8217 29.3353 24.0483 28.824 23.0469C28.3169 22.0412 28.0633 20.848 28.0633 19.4673C28.0633 18.4105 28.2124 17.4666 28.5107 16.6357C28.8133 15.8047 29.2352 15.0994 29.7764 14.5199C30.3176 13.9361 30.9525 13.4929 31.6812 13.1903C32.4099 12.8835 33.2025 12.7301 34.059 12.7301C34.7835 12.7301 35.4589 12.8366 36.0853 13.0497C36.7117 13.2585 37.2678 13.5568 37.7536 13.9446C38.2437 14.3324 38.6464 14.7926 38.9617 15.3253C39.2771 15.858 39.4838 16.446 39.5818 17.0895H37.1656ZM53.681 19.4545C53.681 20.8651 53.4168 22.0732 52.8884 23.0788C52.3643 24.0803 51.6483 24.8473 50.7407 25.38C49.8373 25.9126 48.8124 26.179 47.6661 26.179C46.5198 26.179 45.4928 25.9126 44.5851 25.38C43.6817 24.843 42.9658 24.0739 42.4374 23.0724C41.9133 22.0668 41.6512 20.8608 41.6512 19.4545C41.6512 18.044 41.9133 16.8381 42.4374 15.8366C42.9658 14.831 43.6817 14.0618 44.5851 13.5291C45.4928 12.9964 46.5198 12.7301 47.6661 12.7301C48.8124 12.7301 49.8373 12.9964 50.7407 13.5291C51.6483 14.0618 52.3643 14.831 52.8884 15.8366C53.4168 16.8381 53.681 18.044 53.681 19.4545ZM51.2968 19.4545C51.2968 18.4616 51.1412 17.6243 50.8302 16.9425C50.5233 16.2564 50.0972 15.7386 49.5518 15.3892C49.0063 15.0355 48.3778 14.8587 47.6661 14.8587C46.9545 14.8587 46.3259 15.0355 45.7805 15.3892C45.235 15.7386 44.8067 16.2564 44.4957 16.9425C44.1888 17.6243 44.0354 18.4616 44.0354 19.4545C44.0354 20.4474 44.1888 21.2869 44.4957 21.973C44.8067 22.6548 45.235 23.1726 45.7805 23.5263C46.3259 23.8757 46.9545 24.0504 47.6661 24.0504C48.3778 24.0504 49.0063 23.8757 49.5518 23.5263C50.0972 23.1726 50.5233 22.6548 50.8302 21.973C51.1412 21.2869 51.2968 20.4474 51.2968 19.4545ZM60.3879 26V12.9091H65.3992C66.3453 12.9091 67.1315 13.0582 67.7579 13.3565C68.3886 13.6506 68.8595 14.0533 69.1705 14.5646C69.4859 15.076 69.6436 15.6555 69.6436 16.3033C69.6436 16.8359 69.5413 17.2919 69.3367 17.6712C69.1322 18.0462 68.8573 18.3509 68.5122 18.5852C68.167 18.8196 67.7813 18.9879 67.3552 19.0902V19.218C67.8197 19.2436 68.265 19.3864 68.6911 19.6463C69.1215 19.902 69.4731 20.2642 69.7458 20.733C70.0186 21.2017 70.1549 21.7685 70.1549 22.4332C70.1549 23.1108 69.9909 23.7202 69.6627 24.2614C69.3346 24.7983 68.8403 25.2223 68.1798 25.5334C67.5193 25.8445 66.6883 26 65.6869 26H60.3879ZM62.7593 24.0185H65.3097C66.1705 24.0185 66.7906 23.8544 67.1698 23.5263C67.5534 23.1939 67.7451 22.7678 67.7451 22.2479C67.7451 21.8601 67.6492 21.5107 67.4575 21.1996C67.2657 20.8842 66.993 20.6371 66.6393 20.4581C66.2856 20.2749 65.8637 20.1832 65.3737 20.1832H62.7593V24.0185ZM62.7593 18.4766H65.1052C65.5143 18.4766 65.8829 18.402 66.211 18.2528C66.5392 18.0994 66.797 17.8842 66.9845 17.6072C67.1762 17.326 67.2721 16.9936 67.2721 16.6101C67.2721 16.103 67.0931 15.6854 66.7352 15.3572C66.3815 15.0291 65.8552 14.8651 65.1563 14.8651H62.7593V18.4766ZM73.8991 26H71.3678L75.9765 12.9091H78.904L83.5191 26H80.9878L77.4914 15.5938H77.3891L73.8991 26ZM73.9822 20.8672H80.8856V22.772H73.9822V20.8672ZM95.8334 17.326H93.4427C93.3746 16.9339 93.2488 16.5866 93.0656 16.2841C92.8824 15.9773 92.6544 15.7173 92.3817 15.5043C92.1089 15.2912 91.7979 15.1314 91.4484 15.0249C91.1032 14.9141 90.7304 14.8587 90.3298 14.8587C89.6182 14.8587 88.9875 15.0376 88.4378 15.3956C87.8881 15.7493 87.4577 16.2692 87.1466 16.9553C86.8355 17.6371 86.68 18.4702 86.68 19.4545C86.68 20.456 86.8355 21.2997 87.1466 21.9858C87.4619 22.6676 87.8923 23.1832 88.4378 23.5327C88.9875 23.8778 89.616 24.0504 90.3234 24.0504C90.7155 24.0504 91.0819 23.9993 91.4229 23.897C91.768 23.7905 92.077 23.6349 92.3497 23.4304C92.6267 23.2259 92.8589 22.9744 93.0464 22.6761C93.2382 22.3778 93.3703 22.0369 93.4427 21.6534L95.8334 21.6662C95.7439 22.2884 95.55 22.8722 95.2517 23.4176C94.9577 23.9631 94.572 24.4446 94.0947 24.8622C93.6175 25.2756 93.0592 25.5994 92.42 25.8338C91.7808 26.0639 91.0713 26.179 90.2915 26.179C89.1409 26.179 88.1139 25.9126 87.2105 25.38C86.3071 24.8473 85.5954 24.0781 85.0756 23.0724C84.5557 22.0668 84.2957 20.8608 84.2957 19.4545C84.2957 18.044 84.5578 16.8381 85.0819 15.8366C85.6061 14.831 86.3199 14.0618 87.2233 13.5291C88.1267 12.9964 89.1494 12.7301 90.2915 12.7301C91.0202 12.7301 91.6977 12.8324 92.3241 13.0369C92.9506 13.2415 93.5088 13.5419 93.9988 13.9382C94.4889 14.3303 94.8916 14.8118 95.2069 15.3828C95.5265 15.9496 95.7354 16.5973 95.8334 17.326ZM98.0051 26V12.9091H100.377V18.924H100.536L105.644 12.9091H108.539L103.477 18.7834L108.584 26H105.733L101.828 20.3878L100.377 22.1009V26H98.0051Z" fill="#121212"/>
</svg>
