<svg width="1744" height="1995" viewBox="0 0 1744 1995" fill="none" xmlns="http://www.w3.org/2000/svg">
<g clip-path="url(#clip0_593_80)">
<path d="M1505.47 145.951C1469.33 204.15 1433.76 262.704 1397.8 321.011C1369.11 367.53 1340.21 413.926 1311.39 460.349C1276.78 516.066 1242.25 571.818 1207.52 627.437C1175.3 679.006 1141.71 729.76 1110.68 782.008L1355.88 1280.82C1354.87 1275.63 1355.84 1270.57 1360.49 1264.96C1379.6 1241.93 1397.36 1217.8 1415.87 1194.28C1464.24 1132.85 1512.85 1071.6 1561.15 1010.11C1599.97 960.677 1632.27 907.075 1657.38 849.614C1675.44 808.3 1693.1 766.319 1705.18 723.028C1718.41 675.607 1725.04 626.344 1734.51 577.873C1746.31 517.456 1744.93 456.275 1741.85 395.427C1740.17 362.425 1735.69 333.829 1729.95 301.031C1729.08 296.045 1727.79 291.121 1726.96 286.125C1724.21 269.673 1718.87 248.616 1714.09 232.79C1696.5 174.68 1674.16 118.389 1642.17 66.4928C1628.61 44.4768 1613.33 23.5088 1597.44 0C1565.14 51.2141 1535.01 98.3998 1505.47 145.951Z" fill="url(#paint0_linear_593_80)"/>
<g opacity="0.550003">
<path d="M1352.43 1279.01L1400.31 1215.72L1110.24 783.293L1352.43 1279.01Z" fill="black"/>
</g>
<path d="M1356.44 1271.38C1357.58 1269.89 1358.92 1268.39 1360.93 1266.83C1358.93 1268.39 1357.55 1269.89 1356.44 1271.38Z" fill="url(#paint1_linear_593_80)"/>
<path d="M1101.4 798.258C1062.13 865.675 1025.14 934.465 988.776 1003.5C950.697 1075.79 921.857 1151.32 905.747 1232.06C887.423 1323.86 901.693 1410.06 947.408 1489.65C987.011 1558.57 1033.12 1623.83 1076.86 1690.38C1115.35 1748.91 1154.57 1806.96 1193.42 1865.26C1221.95 1908.08 1250.39 1950.96 1279.33 1994.49C1291.48 1987.27 1302.96 1981.08 1313.73 1973.85C1325.73 1965.81 1337.65 1957.46 1348.65 1948.14C1439.32 1871.34 1495.02 1776.97 1498.14 1655.56C1499.58 1599.68 1483.78 1548.66 1462.24 1497.81C1452.96 1480.65 1442.43 1464.14 1433.85 1446.66C1424.58 1427.8 1417.55 1407.88 1408.44 1388.95C1392.53 1355.87 1375.71 1323.22 1359.41 1290.33C1358.16 1287.81 1357.4 1285.38 1356.93 1282.99L1110.33 783.406C1140.65 732.578 1173.39 683.161 1204.94 633.036C1170.31 688.053 1134.1 742.132 1101.4 798.258Z" fill="url(#paint2_linear_593_80)"/>
<path d="M386.835 1269.75C392.282 1276.73 393.037 1283.52 388.896 1291.47C379.643 1309.23 370.558 1327.08 361.801 1345.09C338.658 1392.7 316.562 1440.85 292.437 1487.93C273.366 1525.16 257.906 1564.01 253.334 1605.15C246.939 1662.61 250.591 1720.36 271.991 1775.04C307.717 1866.36 365.843 1938.83 450.982 1987.76C468.525 1997.85 468.197 1997.59 479.565 1980.03C532.177 1898.84 584.724 1817.59 637.835 1736.73C655.325 1710.1 672.878 1683.51 690.037 1656.69L311.003 1172.11C336.27 1204.66 361.476 1237.26 386.835 1269.75Z" fill="url(#paint3_linear_593_80)"/>
<path d="M143.11 12.9357C111.479 53.3303 85.6074 97.2453 64.9478 144.166C43.6072 192.645 26.0818 242.527 18.279 295.114C11.4336 341.214 4.4057 387.475 1.43954 433.919C-1.79313 484.682 0.166158 535.692 9.89872 586.013C17.5535 625.621 23.9152 665.52 32.8729 704.826C38.44 729.274 46.2527 753.485 55.7434 776.694C74.2363 821.946 92.8032 867.331 114.682 910.974C142.345 966.178 180.855 1014.33 219.484 1062.31C248.855 1098.78 277.826 1135.59 306.712 1172.46L685.102 1658.93C719.467 1605.7 754.692 1547.58 781.476 1489.82C805.008 1439.08 823.629 1386.99 834.097 1331.43C850.458 1244.53 838.409 1161.35 802.624 1082.72C776.758 1025.88 743.202 972.41 711.256 918.521C676.718 860.267 640.038 803.296 604.341 745.736C569.57 689.657 534.9 633.527 500.119 577.453C465 520.835 429.658 464.355 394.695 407.635C366.075 361.21 338.068 314.405 309.446 267.978C276.902 215.177 243.98 162.608 211.219 109.94C190.578 76.7584 169.933 43.5819 148.706 9.45996C145.552 11.3809 143.954 11.8564 143.11 12.9357Z" fill="url(#paint4_linear_593_80)"/>
<g opacity="0.300003">
<path d="M684.531 1658.05L389.638 1283.36L362.135 1339.95L684.531 1658.05Z" fill="black"/>
</g>
<path d="M835.828 72.3164C673.123 72.3164 540 205.439 540 368.145V442.102C540 511.128 594.235 565.364 663.262 565.364C678.053 565.364 687.914 555.503 687.914 540.711V343.492C687.914 328.701 678.053 318.84 663.262 318.84C636.144 318.84 611.492 328.701 591.77 343.492C604.096 220.231 710.101 121.621 835.828 121.621C961.555 121.621 1067.56 217.765 1079.89 343.492C1060.16 328.701 1035.51 318.84 1008.39 318.84C993.603 318.84 983.743 328.701 983.743 343.492V540.711C983.743 555.503 993.603 565.364 1008.39 565.364C1023.19 565.364 1040.44 562.898 1052.77 555.503C1025.65 604.807 983.743 644.251 931.973 666.438C927.042 636.856 902.39 612.203 870.342 612.203C838.294 612.203 811.176 639.321 811.176 671.369C811.176 688.625 818.572 705.882 833.363 718.208C845.689 728.069 858.015 733 872.807 733C875.272 733 880.203 733 882.668 733C1023.19 713.278 1131.66 587.551 1131.66 442.102V368.145C1131.66 205.439 998.534 72.3164 835.828 72.3164Z" fill="#1670CD"/>
</g>
<defs>
<linearGradient id="paint0_linear_593_80" x1="1198.85" y1="1121.87" x2="1838.07" y2="86.5813" gradientUnits="userSpaceOnUse">
<stop stop-color="#1085E2"/>
<stop offset="1" stop-color="#01C5F9"/>
</linearGradient>
<linearGradient id="paint1_linear_593_80" x1="1068.91" y1="928.463" x2="1376.45" y2="1840.65" gradientUnits="userSpaceOnUse">
<stop stop-color="#05369C"/>
<stop offset="1" stop-color="#229AF1"/>
</linearGradient>
<linearGradient id="paint2_linear_593_80" x1="1029.64" y1="970.256" x2="1487.14" y2="1828.48" gradientUnits="userSpaceOnUse">
<stop stop-color="#05369C"/>
<stop offset="1" stop-color="#229AF1"/>
</linearGradient>
<linearGradient id="paint3_linear_593_80" x1="531.045" y1="1353.94" x2="246.448" y2="1903.99" gradientUnits="userSpaceOnUse">
<stop stop-color="#05369C"/>
<stop offset="1" stop-color="#229AF1"/>
</linearGradient>
<linearGradient id="paint4_linear_593_80" x1="-143.411" y1="107.447" x2="957.163" y2="1541.1" gradientUnits="userSpaceOnUse">
<stop stop-color="#1085E2"/>
<stop offset="1" stop-color="#01C5F9"/>
</linearGradient>
<clipPath id="clip0_593_80">
<rect width="1744" height="1995" fill="white"/>
</clipPath>
</defs>
</svg>
